:SAMPLES-PER-SECOND 24
:FULLY-SPECIFIED
:DEGREES
195
root  3.85781 41.5616 41.8992 137.721 -31.6414 -126.182
RightUpLeg  -38.5326 -32.6623 -51.1345
RightLeg  76.7113 2.95536 11.1085
RightFoot  32.6177 -4.49568 11.6819
RightToes  -1.74623e-010 0 -2.59999e-017
Spine  11.9188 -1.75002 -5.21618
Spine1  7.62473 -12.1021 32.8154
HEad  -7.86549 -42.5245 28.2668
LeftShoulder1  1.15486 -4.03146 -7.77668
LeftArm  23.8434 -66.2196 -86.4734
LeftForeArm  37.6591 -60.33 -16.2951
LeftHand  -0.480154 2.0267 16.4385
RightShoulder  3.36315 5.49386 31.4948
RightArm  -49.823 -1.05294 5.67986
RightForeArm  -8.6955 12.4233 6.32235
RightHand  -3.49042 4.91094 -38.1912
LeftUpLeg  -10.9257 27.2974 35.2598
LeftLeg  23.4046 28.9883 12.6139
LeftFoot  0.536971 -0.588591 5.53935
LeftToes  -6.27559e-011 -2.10356e-011 8.24929e-012
196
root  3.42977 41.2328 41.2853 134.409 -30.3176 -122.558
RightUpLeg  -43.3051 -30.6082 -49.5729
RightLeg  37.797 8.01015 7.63602
RightFoot  27.564 -4.09882 12.2259
RightToes  -1.74623e-010 0 -2.59999e-017
Spine  13.0555 -3.68331 -0.483023
Spine1  9.31817 -13.6199 34.0551
HEad  -6.52564 -39.6579 27.1838
LeftShoulder1  0.956204 -3.40456 -6.10067
LeftArm  45.6979 -66.6558 -114.574
LeftForeArm  36.9706 -57.9434 -14.6669
LeftHand  -0.603696 1.33173 17.202
RightShoulder  3.52812 5.68449 32.522
RightArm  -46.5848 -7.31854 8.64708
RightForeArm  -11.5412 8.69443 6.33083
RightHand  -2.89137 4.47165 -33.3588
LeftUpLeg  -8.30332 31.5339 36.7448
LeftLeg  20.954 55.1518 15.3113
LeftFoot  -4.84611 -0.176589 3.59882
LeftToes  -6.27559e-011 -2.10356e-011 8.24929e-012
197
root  3.86711 40.9184 39.7204 132.534 -30.5404 -121.633
RightUpLeg  -50.3185 -33.427 -38.5209
RightLeg  4.52953 3.84649 -0.635673
RightFoot  22.0382 -4.40536 15.1822
RightToes  -1.74623e-010 0 -2.59999e-017
Spine  15.6062 -4.34703 -2.00725
Spine1  7.84684 -14.5672 36.1925
HEad  -2.49954 -34.8418 22.2677
LeftShoulder1  0.808647 -2.67251 -5.26835
LeftArm  47.7092 -62.5908 -120.494
LeftForeArm  35.8992 -58.5129 -15.1572
LeftHand  -0.570032 1.7551 18.1307
RightShoulder  3.71148 5.86641 33.7295
RightArm  -44.7243 -15.2373 10.0864
RightForeArm  -13.4228 11.9562 6.73525
RightHand  -2.3386 3.50136 -30.1154
LeftUpLeg  -4.96577 29.1511 39.8535
LeftLeg  16.2051 60.0572 11.6455
LeftFoot  -8.6693 -0.0212253 3.14982
LeftToes  -6.27559e-011 -2.10356e-011 8.24929e-012
198
root  4.91345 40.7121 37.7817 126.331 -36.0592 -116.317
RightUpLeg  -64.5039 -38.7785 -23.9528
RightLeg  13.7268 2.36544 2.38638
RightFoot  15.9513 -2.78943 11.9115
RightToes  -1.74623e-010 0 -2.59999e-017
Spine  16.0328 -6.76029 -6.60771
Spine1  9.60507 -18.881 36.7918
HEad  -1.33685 -28.6577 21.0494
LeftShoulder1  0.867654 -2.59745 -6.53697
LeftArm  43.0666 -61.1172 -111.451
LeftForeArm  35.3829 -60.857 -16.9421
LeftHand  -0.47847 2.27979 17.7103
RightShoulder  3.97805 6.11991 35.435
RightArm  -44.474 -22.975 12.2108
RightForeArm  -16.5382 17.1647 6.36051
RightHand  -2.04409 2.79237 -28.6738
LeftUpLeg  -9.39579 29.9975 39.7722
LeftLeg  18.8616 46.2469 12.6016
LeftFoot  -10.0327 0.0109801 4.32292
LeftToes  -6.27559e-011 -2.10356e-011 8.24929e-012
199
root  5.64487 40.7493 34.791 114.032 -43.5296 -106.264
RightUpLeg  -70.2268 -36.0814 -17.8372
RightLeg  43.1339 5.90588 5.56797
RightFoot  13.7576 -3.11175 14.2998
RightToes  -1.74623e-010 0 -2.59999e-017
Spine  14.4353 -10.0903 -12.0793
Spine1  12.335 -22.0882 33.8495
HEad  0.638255 -21.7775 20.1707
LeftShoulder1  1.09324 -3.13499 -9.04846
LeftArm  30.7061 -56.9393 -91.1029
LeftForeArm  33.1463 -61.2505 -17.5183
LeftHand  -0.57805 1.82353 18.6933
RightShoulder  4.08739 6.20303 36.1933
RightArm  -42.9133 -30.4314 12.6799
RightForeArm  -19.3192 22.2125 5.99669
RightHand  -1.89626 2.53847 -27.5019
LeftUpLeg  -14.8735 31.331 38.5531
LeftLeg  20.9564 32.6512 12.2749
LeftFoot  -8.10489 -0.0796573 4.75397
LeftToes  -6.27559e-011 -2.10356e-011 8.24929e-012
200
root  5.60128 40.5793 31.4935 100.05 -49.6359 -95.5547
RightUpLeg  -66.141 -27.3079 -14.7714
RightLeg  63.323 7.6024 15.4594
RightFoot  12.0851 -3.83247 18.7249
RightToes  -1.74623e-010 0 -2.59999e-017
Spine  13.2545 -11.6816 -17.3998
Spine1  10.8168 -21.3466 30.0966
HEad  5.95322 -11.5777 16.3763
LeftShoulder1  1.40951 -3.8403 -12.0771
LeftArm  15.9885 -44.7067 -65.793
LeftForeArm  29.1253 -57.6093 -15.2577
LeftHand  -0.54885 2.26611 20.279
RightShoulder  3.93034 6.03613 35.3029
RightArm  -39.5789 -37.7043 6.82952
RightForeArm  -17.821 29.0258 7.16162
RightHand  -1.7622 2.07829 -27.1443
LeftUpLeg  -17.4857 28.2452 38.7196
LeftLeg  24.6255 24.5932 12.1022
LeftFoot  -6.47107 0.0143726 0.538298
LeftToes  -6.27559e-011 -2.10356e-011 8.24929e-012
201
root  5.48592 39.9388 29.0354 82.4592 -54.8382 -80.3218
RightUpLeg  -58.7995 -21.4719 -7.95499
RightLeg  74.1284 7.19695 26.2175
RightFoot  3.59161 -3.31905 25.3994
RightToes  -1.74623e-010 0 -2.59999e-017
Spine  13.5032 -11.6627 -21.677
Spine1  8.88667 -20.6587 27.4146
HEad  8.56978 3.24072 12.8659
LeftShoulder1  1.72091 -4.23712 -15.4255
LeftArm  10.06 -27.9084 -44.4873
LeftForeArm  27.3487 -53.7993 -13.1119
LeftHand  -0.407109 3.11632 20.5273
RightShoulder  3.53974 5.65223 32.7892
RightArm  -35.3519 -42.0824 -2.84347
RightForeArm  -14.5747 36.9863 9.27989
RightHand  -1.68404 1.62975 -27.5681
LeftUpLeg  -21.7544 26.9526 35.7093
LeftLeg  28.1869 13.7944 8.26142
LeftFoot  -6.27966 0.110436 -1.65924
LeftToes  -6.27559e-011 -2.10356e-011 8.24929e-012
202
root  5.23264 38.7013 26.3556 55.082 -56.1242 -53.7554
RightUpLeg  -48.0982 -19.1102 -5.0947
RightLeg  78.9091 7.11687 36.7758
RightFoot  -4.51502 -1.7505 28.2772
RightToes  -1.74623e-010 0 -2.59999e-017
Spine  15.1585 -10.8806 -26.1691
Spine1  7.95786 -19.9189 24.0309
HEad  4.72189 19.0301 8.37509
LeftShoulder1  1.83013 -4.28982 -16.7933
LeftArm  5.91318 -13.6407 -24.4732
LeftForeArm  23.7986 -49.808 -11.4682
LeftHand  -0.39238 3.36981 22.2604
RightShoulder  2.96096 4.96044 29.0596
RightArm  -31.0639 -41.2516 -11.1778
RightForeArm  -13.8218 41.5891 10.7682
RightHand  -1.54879 1.09902 -27.4213
LeftUpLeg  -30.5541 24.4213 28.3046
LeftLeg  33.9957 3.65963 3.05217
LeftFoot  -6.80855 0.0675423 -0.672397
LeftToes  -6.27559e-011 -2.10356e-011 8.24929e-012
203
root  4.89394 37.2874 23.8228 32.4722 -48.3942 -29.7339
RightUpLeg  -39.6184 -15.3292 -2.56858
RightLeg  77.9828 8.26527 38.3771
RightFoot  -8.77171 -0.631486 25.3284
RightToes  -1.74623e-010 0 -2.59999e-017
Spine  17.2541 -9.41155 -26.1654
Spine1  6.50919 -17.5998 19.821
HEad  -3.45915 33.07 -1.3807
LeftShoulder1  1.72468 -4.13334 -15.8125
LeftArm  2.75536 -0.181408 -8.19949
LeftForeArm  16.6872 -46.6336 -10.6622
LeftHand  -0.258686 4.09895 22.7677
RightShoulder  2.35504 4.09955 24.9095
RightArm  -25.5929 -35.3542 -16.4915
RightForeArm  -14.4235 40.6932 10.4883
RightHand  -1.31149 0.325455 -26.3791
LeftUpLeg  -40.8127 14.3918 22.2721
LeftLeg  39.8039 0.748742 1.11331
LeftFoot  -6.25355 0.199442 -3.43771
LeftToes  -6.27559e-011 -2.10356e-011 8.24929e-012
204
root  4.46799 36.1123 21.6781 21.97 -34.778 -15.8256
RightUpLeg  -34.2022 -9.23196 0.714196
RightLeg  75.4157 9.66815 36.2152
RightFoot  -10.5133 -0.248601 23.9508
RightToes  -1.74623e-010 0 -2.59999e-017
Spine  16.8357 -7.23434 -21.6316
Spine1  6.46414 -14.2233 17.5183
HEad  -12.7759 42.9568 -14.4772
LeftShoulder1  1.53431 -3.89141 -13.7911
LeftArm  2.13928 13.4785 3.08603
LeftForeArm  10.7832 -48.0329 -11.6895
LeftHand  -0.197345 4.3848 22.2252
RightShoulder  1.96884 3.64063 21.2871
RightArm  -18.8825 -26.6907 -17.6558
RightForeArm  -14.1152 36.9457 9.2316
RightHand  -1.17601 -0.0413196 -25.3111
LeftUpLeg  -50.286 3.75145 18.4109
LeftLeg  41.0056 -3.85398 -3.18646
LeftFoot  -2.71745 0.740215 -9.4221
LeftToes  -6.27559e-011 -2.10356e-011 8.24929e-012
